# xmcd
#
# Track frame offsets:
#	150
#	13117
#	34350
#	48165
#	66462
#	81142
#	93405
#	103755
#	126965
#	144462
#	169925
#	179005
#	191347
#	205777
#	217392
#	228452
#	242985
#	257680
#	271225
#	287160
#
# Disc length: 4003 seconds
#
# Revision: 0
# Processed by: cddbd v1.5.1PL0 Copyright (c) Steve Scherf et al.
# Submitted via: audiograbber 1.83.01
#
DISCID=370fa114
DTITLE=Διάφοροι - ΟΙ ΣΥΝΘΕΤΕΣ ΣΤΑ ΤΡΑΓΟΥΔΙΑ ΤΟΥΣ
DYEAR=1999
DGENRE=
TTITLE0=Διονύσης Σαββόπουλος - Ας κρατήσουν οι χοροί
TTITLE1=Δήμος Μούτσης - Ερηνούλα μου
TTITLE2=Αφροδίτη Μάνου - Νυχτερινή εκπομπή
TTITLE3=Λουκιανός Κηλαηδόνης - Τα θερινά σινεμά
TTITLE4=Λένα Πλάτωνος - Εμιγκρέδες της Ρουμανίας
TTITLE5=Γιάννης Γιοκαρίνης - Δεν είμαστε καλά
TTITLE6=Βαγγέλης Γερμανός - Μπανιέρα
TTITLE7=Σταμάτης Σπανουδάκης - Όνειρο
TTITLE8=Γιάννης Γιοκαρίνης - Νοσταλγός του ροκ εντ ρολλ
TTITLE9=Δήμος Μούτσης - Οι γκόμενες
TTITLE10=Μίκης Θεοδωράκης - Το γελαστό παιδί
TTITLE11=Διονύσης Σαββόπουλος - Θεία Μάρω
TTITLE12=Αρλέτα - Ο λύκος
TTITLE13=Θάνος Μικρούτσικος - Μπαλάντα για τους ασφαλίτες
TTITLE14=Λουκιανός Κηλαηδόνης - Το ματς
TTITLE15=Γιάννης Γιοκαρίνης - Ευλαμπία
TTITLE16=Νίκος Παπάζογλου - Χαράτσι
TTITLE17=Νίκος Ξυδάκης - Στο Σου Μι Τζου κάποια βραδιά
TTITLE18=Νίκος Παπάζογλου - Ο μοναχός ο άνθρωπος
TTITLE19=Ηλίας Ανδριόπουλος - Τραγούδι του 1985
EXTD=
EXTT0=
EXTT1=
EXTT2=
EXTT3=
EXTT4=
EXTT5=
EXTT6=
EXTT7=
EXTT8=
EXTT9=
EXTT10=
EXTT11=
EXTT12=
EXTT13=
EXTT14=
EXTT15=
EXTT16=
EXTT17=
EXTT18=
EXTT19=
PLAYORDER=
